<?xml version="1.0" encoding="utf-8"?>
<!-- Generator: Adobe Illustrator 16.0.4, SVG Export Plug-In . SVG Version: 6.00 Build 0)  -->
<!DOCTYPE svg PUBLIC "-//W3C//DTD SVG 1.1//EN" "http://www.w3.org/Graphics/SVG/1.1/DTD/svg11.dtd">
<svg version="1.1" id="Layer_1" xmlns="http://www.w3.org/2000/svg" xmlns:xlink="http://www.w3.org/1999/xlink" x="0px" y="0px"
	 width="256px" height="256px" viewBox="0 0 256 256" enable-background="new 0 0 256 256" xml:space="preserve">
<g>
	<path fill="#408533" d="M129.6,41.593c4.799,0,8.601,3.8,8.601,8.6v4.4c11.799,1.4,21.799,5.199,31,11c3.198,1.8,6,4.8,6,9.6
		c0,6.201-5,11-11.201,11c-2,0-4-0.601-6-1.799c-7-4.201-13.799-7.201-20.601-8.801v38.399c30.4,7.601,43.4,19.801,43.4,41.201
		c0,21.998-17.199,36.598-42.6,38.998v12c0,4.801-3.801,8.6-8.6,8.6c-4.802,0-8.802-3.799-8.802-8.6v-12.4
		c-15-1.6-28.799-6.998-40.999-15.6c-3.4-2.199-5.4-5.398-5.4-9.601c0-6.198,4.8-11,11-11c2.4,0,4.8,0.802,6.6,2.201
		c9.4,6.799,18.6,11.397,29.6,13.397v-39.397c-29.2-7.6-42.799-18.6-42.799-41.2c0-21.399,17-36.199,41.999-38.199v-4.201
		C120.799,45.393,124.799,41.593,129.6,41.593z M121.6,109.792V74.393c-12.8,1.199-19.2,8-19.2,16.799
		C102.4,99.592,106.2,104.792,121.6,109.792z M137.398,137.591v36.4c12.801-1.4,19.801-7.802,19.801-17.4
		C157.199,147.792,152.799,142.393,137.398,137.591z"/>
</g>
<path fill="#408533" d="M193.594,248h-32.347c-4.419,0-8-3.581-8-8s3.581-8,8-8h32.347c4.418,0,8,3.581,8,8S198.012,248,193.594,248
	z M128.9,248H96.554c-4.418,0-8-3.581-8-8s3.582-8,8-8H128.9c4.418,0,8,3.581,8,8S133.318,248,128.9,248z M64.208,248H48
	c-6.76,0-13.444-1.721-19.33-4.975c-3.867-2.137-5.269-7.004-3.131-10.871c2.138-3.866,7.004-5.27,10.872-3.131
	C39.934,230.971,43.941,232,48,232h16.208c4.418,0,8,3.581,8,8S68.626,248,64.208,248z M225.018,243.109
	c-2.658,0-5.26-1.324-6.779-3.741c-2.352-3.74-1.227-8.679,2.515-11.03C227.795,223.909,232,216.307,232,208v-0.133
	c0-4.419,3.582-8,8-8s8,3.581,8,8V208c0,13.841-7.002,26.507-18.73,33.882C227.945,242.714,226.473,243.109,225.018,243.109z
	 M16.042,217.798c-4.217,0-7.746-3.299-7.98-7.562C8.021,209.499,8,208.755,8,208.006v-30.553c0-4.419,3.582-8,8-8s8,3.581,8,8V208
	c0,0.452,0.013,0.907,0.038,1.357c0.243,4.414-3.137,8.186-7.549,8.429C16.339,217.794,16.19,217.798,16.042,217.798z M240,183.521
	c-4.418,0-8-3.582-8-8v-32.348c0-4.418,3.582-8,8-8s8,3.582,8,8v32.348C248,179.938,244.418,183.521,240,183.521z M16,153.105
	c-4.418,0-8-3.582-8-8v-32.348c0-4.418,3.582-8,8-8s8,3.582,8,8v32.348C24,149.523,20.418,153.105,16,153.105z M240,118.828
	c-4.418,0-8-3.582-8-8V78.481c0-4.418,3.582-8,8-8s8,3.582,8,8v32.346C248,115.246,244.418,118.828,240,118.828z M16,88.413
	c-4.418,0-8-3.582-8-8V48.066c0-4.418,3.582-8,8-8s8,3.582,8,8v32.347C24,84.831,20.418,88.413,16,88.413z M239.939,54.136
	c-4.209,0-7.736-3.286-7.98-7.541c-0.475-8.285-5.116-15.628-12.414-19.642c-3.871-2.13-5.283-6.994-3.152-10.865
	c2.129-3.872,6.992-5.283,10.865-3.154c12.152,6.686,19.883,18.926,20.676,32.743c0.254,4.411-3.117,8.192-7.529,8.446
	C240.249,54.131,240.094,54.136,239.939,54.136z M30.941,28.927c-2.653,0-5.249-1.319-6.771-3.729
	c-2.359-3.735-1.244-8.676,2.491-11.035C33.043,10.131,40.422,8,48,8h14.34c4.418,0,8,3.582,8,8s-3.582,8-8,8H48
	c-4.549,0-8.973,1.276-12.794,3.689C33.88,28.527,32.401,28.927,30.941,28.927z M191.727,24h-32.348c-4.418,0-8-3.582-8-8
	s3.582-8,8-8h32.348c4.418,0,8,3.582,8,8S196.145,24,191.727,24z M127.033,24H94.687c-4.418,0-8-3.582-8-8s3.582-8,8-8h32.347
	c4.418,0,8,3.582,8,8S131.451,24,127.033,24z"/>
</svg>
