<?xml version="1.0" encoding="utf-8"?>
<!-- Generator: Adobe Illustrator 18.1.1, SVG Export Plug-In . SVG Version: 6.00 Build 0)  -->
<svg version="1.1" id="Layer_1" xmlns="http://www.w3.org/2000/svg" xmlns:xlink="http://www.w3.org/1999/xlink" x="0px" y="0px"
	 viewBox="0 0 408.1 409.5" enable-background="new 0 0 408.1 409.5" xml:space="preserve">
<g>
	
		<path fill-rule="evenodd" clip-rule="evenodd" fill="#FFFFFF" stroke="#FFFFFF" stroke-width="3.600000e-02" stroke-miterlimit="10" d="
		M360.5,127.1c-5.5,7.2-7.6,9.6-16.1,20.9c-8.5,11.2-6.2,9.5-17.3,23.1c-11.1,13.6-14.2,18.9-27,31.5
		c-12.8,12.5-13.3,11.1-24.2,18.7c-10.9,7.5-11,7.2-19.4,11.4c-8.4,4.2-10.7,5.2-14.1,5.5c1.5,0.4,3,0.7,4.5,1
		c3.3,0.1,2.1-0.3,9-0.7c6.8-0.4,11.5-1.5,18.3-1c6.8,0.4,6.2,0.7,9,2.8c2.8,2.1,3.1,3.5,2.4,5.5c0,0.1,0,0.2,0,0.3
		c-9.3,0-14.3,0-28,3.5c-13.8,3.5-11.1,3-27,10.4c-15.9,7.5-21.7,13.5-36.6,19.4c-15,5.9-13.4,3.9-23.2,4.1
		c-9.8,0.3-10.4-1.2-15.9-3.1c-5.5-1.9-5.9-2.7-6.2-4.5c-0.2,0-0.4,0-0.7,0c6.2-1.8,9.9-2.7,19.4-5.9c9.5-3.2,9.3-2.7,18.7-6.9
		c9.4-4.2,13.1-5.9,19-10c-9.8-0.6-19.6-1.2-29.4-1.7c-15.6-2.3-16.1-1.9-32.5-8.3c-16.4-6.4-18.3-7.3-33.2-17.3
		c-15-10-16.1-12.7-26.6-22.8c-10.5-10.1-7.8-9.4-15.6-17.6c-7.7-8.3-7.2-9.4-15.2-15.6l0,0c-8-6.2-15.9-9.2-15.9-9.2
		c5-18.9,13.1-36.6,23.8-52.5l0,0l0.3,0.3l0,0c8.1,4.5,15.9,10.2,24.1,17.4c8.1,7.3,16.3,16,24.4,25.7c8.1,9.7,17.5,23.5,24,31.9
		c6.5,8.3,7.6,10.7,14.7,17.6c7.1,7,17.3,17.5,27.6,23.8c10.3,6.3,23.2,12.5,33.6,13.7c10.3,1.1,18.9-1.5,28-7.1
		c9.1-5.7,18.8-16.2,26.2-26.3c7.5-10.2,11.7-21.9,18.1-34.1c6.4-12.3,13.5-28.3,19.9-38.7c6.4-10.4,11.3-17.5,18.1-23.3
		c4.4-3.7,10.2-6.4,15-8.5c2.7-1.2,4.4-2.1,7.4-2.8C349,106.9,355.3,116.7,360.5,127.1L360.5,127.1z"/>
	
		<path fill-rule="evenodd" clip-rule="evenodd" fill="#034694" stroke="#034694" stroke-width="3.600000e-02" stroke-miterlimit="10" d="
		M60.4,108.2c1.4-2.1,2.8-4.1,4.3-6.1c31.7-43,82.7-70.9,140.2-70.9c53.8,0,101.9,24.4,133.8,62.8c1,1.2,2,2.5,3,3.7
		c0.8,0-3.6,1-7.3,2.9c-3.8,1.9-8.9,3-15,8.4c-6.1,5.4-11.8,12.9-18.1,23.3c-6.4,10.4-13.5,26.4-19.9,38.7
		c-6.4,12.2-10.7,23.9-18.1,34.1c-7.5,10.2-17.1,20.7-26.2,26.3c-9.1,5.6-17.7,8.2-28,7.1c-10.4-1.2-23.3-7.4-33.6-13.7
		c-10.3-6.3-20.5-16.8-27.6-23.8c-7.1-6.9-8.2-9.3-14.7-17.6c-6.5-8.4-15.8-22.2-24-31.9c-8.1-9.7-16.3-18.4-24.4-25.7
		c-8.2-7.2-16.1-12.9-24.1-17.4l0,0L60.4,108.2L60.4,108.2z"/>
	<path fill-rule="evenodd" clip-rule="evenodd" fill="#FFFFFF" d="M129.3,147v-43.9h22.8l0,0c3.2,0,5.9,2.6,5.9,5.9l0,0V147h-9.6
		v-33.7l0,0c0-0.8-0.6-1.5-1.4-1.5l0,0h-6.6h0l0,0c-0.8,0-1.4,0.6-1.4,1.5l0,0V147H129.3L129.3,147z"/>
	<path fill-rule="evenodd" clip-rule="evenodd" fill="#FFFFFF" d="M224.9,119.2v-5.8l0,0c0-0.8-0.6-1.5-1.5-1.5l0,0h-6.8l0,0
		c-0.8,0-1.5,0.6-1.5,1.5l0,0v5.8v0c0,0.8,0.7,1.5,1.5,1.5l0,0h6.8l0,0C224.3,120.7,224.9,120,224.9,119.2L224.9,119.2L224.9,119.2z
		 M205.4,147V109l0,0c0-3.2,2.7-5.9,6-5.9l0,0h17.4l0,0c3.3,0,6,2.6,6,5.9l0,0V147h-9.9v-16.1l0,0c0-0.8-0.6-1.5-1.5-1.5l0,0h-6.8
		l0,0c-0.8,0-1.5,0.6-1.5,1.5l0,0V147H205.4L205.4,147z"/>
	<path fill-rule="evenodd" clip-rule="evenodd" fill="#FFFFFF" d="M263.5,119.2v-5.8l0,0c0-0.8-0.7-1.5-1.5-1.5l0,0h-6.7l0,0
		c-0.8,0-1.5,0.6-1.5,1.5l0,0v5.8v0c0,0.8,0.6,1.5,1.5,1.5l0,0h6.7l0,0C262.8,120.7,263.5,120,263.5,119.2L263.5,119.2L263.5,119.2z
		 M244.1,147V109l0,0c0-3.2,2.7-5.9,5.9-5.9l0,0h17.1l0,0c3.3,0,6,2.6,6,5.9l0,0V147h-9.7v-16.1l0,0c0-0.8-0.7-1.5-1.5-1.5l0,0h-6.7
		l0,0c-0.8,0-1.5,0.6-1.5,1.5l0,0V147H244.1L244.1,147z"/>
	
		<polygon fill-rule="evenodd" clip-rule="evenodd" fill="#FFFFFF" stroke="#FFFFFF" stroke-width="3.600000e-02" stroke-miterlimit="10" points="
		10.5,268.8 22.2,253.2 7.1,258 6.6,256.3 24.2,250.7 24.8,252.7 13.1,268.3 28.2,263.5 28.7,265.2 11.2,270.8 10.5,268.8 	"/>
	
		<path fill-rule="evenodd" clip-rule="evenodd" fill="#FFFFFF" stroke="#FFFFFF" stroke-width="3.600000e-02" stroke-miterlimit="10" d="
		M4.5,243.1l16.2-11.4l0.4,1.9l-5,3.5l1.8,8.9l5.9,1.1l0.4,1.9L5,245.3L4.5,243.1L4.5,243.1z M14.8,238l-8.3,5.9l9.9,1.9L14.8,238
		L14.8,238z"/>
	
		<polygon fill-rule="evenodd" clip-rule="evenodd" fill="#FFFFFF" stroke="#FFFFFF" stroke-width="3.600000e-02" stroke-miterlimit="10" points="
		4.7,237.4 3.3,237.6 1.4,222.9 2.8,222.7 3.7,229.1 19.8,226.7 20.1,228.6 3.9,231 4.7,237.4 	"/>
	
		<polygon fill-rule="evenodd" clip-rule="evenodd" fill="#FFFFFF" stroke="#FFFFFF" stroke-width="3.600000e-02" stroke-miterlimit="10" points="
		1,218.3 18.9,216.5 19,218.5 1.2,220.3 1,218.3 	"/>
	
		<path fill-rule="evenodd" clip-rule="evenodd" fill="#FFFFFF" stroke="#FFFFFF" stroke-width="3.600000e-02" stroke-miterlimit="10" d="
		M2.6,213.7c-3.3-3.3-3.5-9.6-0.3-13.1c3.4-3.6,10.3-3.8,13.9-0.4c1.7,1.7,2.5,4,2.6,6.4c0,2.5-0.6,4.9-2.2,6.6
		C13.1,217,6.2,217.2,2.6,213.7L2.6,213.7z M3.7,212.3c2.9,2.7,8.9,2.6,11.7-0.3c2.7-2.8,2.6-7.8-0.3-10.4c-3-2.7-8.9-2.5-11.7,0.3
		C0.7,204.7,0.9,209.8,3.7,212.3L3.7,212.3z"/>
	
		<polygon fill-rule="evenodd" clip-rule="evenodd" fill="#FFFFFF" stroke="#FFFFFF" stroke-width="3.600000e-02" stroke-miterlimit="10" points="
		0.9,191.5 17.1,181.2 1.7,179.9 1.9,178.1 19.7,179.6 19.6,181.7 3.3,191.9 18.7,193.2 18.6,195.1 0.7,193.6 0.9,191.5 	"/>
	
		<path fill-rule="evenodd" clip-rule="evenodd" fill="#FFFFFF" stroke="#FFFFFF" stroke-width="3.600000e-02" stroke-miterlimit="10" d="
		M4.2,165.2l19.3-4.3l-0.3,1.9l-5.9,1.3l-1.5,9l5.1,3.3l-0.3,1.9L3.8,167.3L4.2,165.2L4.2,165.2z M15.7,164.3l-10,2.2l8.6,5.5
		L15.7,164.3L15.7,164.3z"/>
	
		<polygon fill-rule="evenodd" clip-rule="evenodd" fill="#FFFFFF" stroke="#FFFFFF" stroke-width="3.600000e-02" stroke-miterlimit="10" points="
		7.1,151.1 23.5,155.5 26.2,146 27.7,146.4 24.4,157.7 6.6,152.9 7.1,151.1 	"/>
	
		<path fill-rule="evenodd" clip-rule="evenodd" fill="#FFFFFF" stroke="#FFFFFF" stroke-width="3.600000e-02" stroke-miterlimit="10" d="
		M14.9,133.8c-1.9-4.3,0.4-10.2,4.8-12.1c4.7-2,11.5,0.6,13.5,5.2c0.9,2.2,0.8,4.6-0.1,6.9c-1,2.4-2.6,4.2-4.8,5.1
		C23.8,141.1,16.9,138.4,14.9,133.8L14.9,133.8z M16.4,133c1.7,3.7,7.6,5.9,11.4,4.4c3.7-1.4,5.5-6.1,3.9-9.6
		c-1.8-3.7-7.6-5.9-11.3-4.4C16.6,124.8,14.8,129.5,16.4,133L16.4,133z"/>
	
		<path fill-rule="evenodd" clip-rule="evenodd" fill="#FFFFFF" stroke="#FFFFFF" stroke-width="3.600000e-02" stroke-miterlimit="10" d="
		M32.8,102.9c-0.3,0.5-0.5,1-0.8,1.6c-2.2-0.8-4.5,0.1-5.9,2.2c-1.3,1.8-1.9,4.1-1.3,6.2c0.7,2.2,2.8,3.7,4.7,4.8
		c4.2,2.2,9.4,1.9,11.2-3.7c0.9-2.6-0.1-5.1-2.2-6.4c0.3-0.5,0.5-1,0.8-1.6c2.8,1.7,4.1,4.9,2.9,8.4c-2.4,6.6-8.2,7.7-13.5,4.9
		c-2.6-1.3-5.1-3.5-5.6-6.7c-0.3-2.4,0.5-5,1.9-7.1C26.8,102.9,30,101.6,32.8,102.9L32.8,102.9z"/>
	
		<polygon fill-rule="evenodd" clip-rule="evenodd" fill="#FFFFFF" stroke="#FFFFFF" stroke-width="3.600000e-02" stroke-miterlimit="10" points="
		38,85.4 39.2,86.3 33,96 38.7,99.7 44.3,90.8 45.5,91.7 39.9,100.5 46,104.5 52.3,94.6 53.6,95.4 46.3,106.9 30.8,96.7 38,85.4 	
		"/>
	
		<path fill-rule="evenodd" clip-rule="evenodd" fill="#FFFFFF" stroke="#FFFFFF" stroke-width="3.600000e-02" stroke-miterlimit="10" d="
		M45.6,75.4l19,5.7l-1.2,1.6l-5.9-1.8l-5.5,7.5l3,5.6l-1.2,1.6l-9.8-18.3L45.6,75.4L45.6,75.4z M56.2,80.4l-9.8-2.9l5,9.4L56.2,80.4
		L56.2,80.4z"/>
	
		<polygon fill-rule="evenodd" clip-rule="evenodd" fill="#FFFFFF" stroke="#FFFFFF" stroke-width="3.600000e-02" stroke-miterlimit="10" points="
		54,65.9 72.7,68.5 61.5,58 62.7,56.8 75.7,69 74.4,70.4 55.6,67.8 66.8,78.3 65.6,79.6 52.6,67.3 54,65.9 	"/>
	
		<polygon fill-rule="evenodd" clip-rule="evenodd" fill="#FFFFFF" stroke="#FFFFFF" stroke-width="3.600000e-02" stroke-miterlimit="10" points="
		67.4,52.9 79.6,66.2 78.2,67.5 66.1,54.2 67.4,52.9 	"/>
	
		<path fill-rule="evenodd" clip-rule="evenodd" fill="#FFFFFF" stroke="#FFFFFF" stroke-width="3.600000e-02" stroke-miterlimit="10" d="
		M87.3,42.8c-0.5,0.4-0.9,0.8-1.4,1.2c-1.7-1.7-4.3-1.7-6.5-0.4c-2,1.1-3.5,3.1-3.8,5.3c-0.3,2.4,1.1,4.6,2.5,6.4
		c3.1,3.8,8,5.5,12.1,1.1c2-2.1,1.9-4.8,0.5-6.8c0.5-0.4,1-0.8,1.5-1.2c1.9,2.7,1.8,6.3-0.8,9c-5,5.3-10.9,4-14.8-0.8
		c-1.9-2.3-3.4-5.3-2.5-8.5c0.7-2.4,2.5-4.5,4.8-5.8C81.6,40.3,85.2,40.4,87.3,42.8L87.3,42.8z"/>
	
		<path fill-rule="evenodd" clip-rule="evenodd" fill="#FFFFFF" stroke="#FFFFFF" stroke-width="3.600000e-02" stroke-miterlimit="10" d="
		M100.5,28.4l16.4,11.9l-1.6,1l-5-3.7l-7.8,4.8l1,6.1l-1.6,1l-3.2-20L100.5,28.4L100.5,28.4z M108.9,36.6l-8.5-6.1l1.7,10.3
		L108.9,36.6L108.9,36.6z"/>
	
		<polygon fill-rule="evenodd" clip-rule="evenodd" fill="#FFFFFF" stroke="#FFFFFF" stroke-width="3.600000e-02" stroke-miterlimit="10" points="
		111.8,22 129,31.3 122,17.1 123.7,16.3 131.8,32.9 129.9,33.8 112.7,24.5 119.7,38.7 118.1,39.5 110,22.9 111.8,22 	"/>
	
		<path fill-rule="evenodd" clip-rule="evenodd" fill="#FFFFFF" stroke="#FFFFFF" stroke-width="3.600000e-02" stroke-miterlimit="10" d="
		M163.2,4.5L175,20.6l-1.9,0.4l-3.6-4.9l-9.1,1.9l-1,5.9l-1.9,0.4L161,5L163.2,4.5L163.2,4.5z M168.5,14.7l-6.1-8.2l-1.8,9.9
		L168.5,14.7L168.5,14.7z"/>
	
		<polygon fill-rule="evenodd" clip-rule="evenodd" fill="#FFFFFF" stroke="#FFFFFF" stroke-width="3.600000e-02" stroke-miterlimit="10" points="
		172.8,4 172.6,2.5 186.9,0.7 187.1,2.1 180.9,2.9 183.1,19.2 181.2,19.4 179,3.2 172.8,4 	"/>
	
		<polygon fill-rule="evenodd" clip-rule="evenodd" fill="#FFFFFF" stroke="#FFFFFF" stroke-width="3.600000e-02" stroke-miterlimit="10" points="
		193.1,0.6 200,16 205.8,0.1 208.3,0 208.9,17.8 207.2,17.8 206.6,2.3 200.9,18.1 199.3,18.1 192.4,2.8 192.9,18.3 191.2,18.4 
		190.5,0.6 193.1,0.6 	"/>
	
		<path fill-rule="evenodd" clip-rule="evenodd" fill="#FFFFFF" stroke="#FFFFFF" stroke-width="3.600000e-02" stroke-miterlimit="10" d="
		M215.6,2.7c3.7-3,10.1-2.5,13.2,1c3.3,3.7,2.7,10.7-1.2,13.9c-1.9,1.5-4.3,2.1-6.8,1.9c-2.6-0.2-4.9-1.1-6.4-2.9
		C211.2,12.8,211.7,5.9,215.6,2.7L215.6,2.7z M216.9,3.9c-3.1,2.6-3.5,8.6-0.9,11.6c2.5,3,7.6,3.3,10.6,0.8c3-2.7,3.5-8.6,0.9-11.6
		C225,1.7,219.8,1.4,216.9,3.9L216.9,3.9z"/>
	
		<path fill-rule="evenodd" clip-rule="evenodd" fill="#FFFFFF" stroke="#FFFFFF" stroke-width="3.600000e-02" stroke-miterlimit="10" d="
		M242.5,14c-2-0.9-4.6-1.7-5.8-3.6c-1.2-2-0.4-4.7,1.6-6c2.6-1.6,6.6-0.9,9.1,0.8c1.7,1.3,2.2,3.3,1.9,5.2c-0.6-0.1-1.2-0.2-1.8-0.4
		c0.2-1.4-0.1-2.8-1.4-3.8c-1.7-1.2-4.6-1.7-6.4-0.8c-1.4,0.8-2.1,2.7-1.3,4.1c0.9,1.5,3.5,2.2,5,2.9c1.9,0.9,4.1,1.9,4.9,3.9
		c0.8,2.1-0.4,4.9-2.5,5.9c-2.9,1.3-7.3,0.5-9.7-1.4c-1.8-1.5-2-3.3-1.7-5.4c0.6,0.1,1.2,0.2,1.8,0.3c-0.2,1.6,0.1,3.2,1.7,4.2
		c1.7,1.2,4.4,1.8,6.4,1.1c1.8-0.6,2.7-2.4,2.3-4.1C246,15.4,244,14.6,242.5,14L242.5,14z"/>
	
		<path fill-rule="evenodd" clip-rule="evenodd" fill="#FFFFFF" stroke="#FFFFFF" stroke-width="3.600000e-02" stroke-miterlimit="10" d="
		M262.5,8.2c3.6,1,6,3.1,4.9,6.8c-1.2,4.1-4.8,4.1-8.6,3c-1.4-0.4-2.7-0.8-4.1-1.2c-0.7,2.6-1.4,5.1-2.2,7.7
		c-0.6-0.2-1.2-0.4-1.8-0.5c1.7-5.9,3.3-11.8,5-17.8C258,6.9,260.2,7.6,262.5,8.2L262.5,8.2z M262,9.6c-1.6-0.5-3.2-0.9-4.9-1.4
		c-0.6,2.4-1.3,4.8-2,7.1c1.4,0.4,2.7,0.8,4.1,1.2c2.8,0.8,5.4,1.1,6.3-2.1C266.4,11.7,264.6,10.4,262,9.6L262,9.6z"/>
	
		<polygon fill-rule="evenodd" clip-rule="evenodd" fill="#FFFFFF" stroke="#FFFFFF" stroke-width="3.600000e-02" stroke-miterlimit="10" points="
		273.9,12.5 271,20 281.7,24.1 284.6,16.6 286.3,17.3 279.8,34.7 278,34 281.2,25.5 270.5,21.4 267.3,29.8 265.6,29.1 272.2,11.8 
		273.9,12.5 	"/>
	
		<polygon fill-rule="evenodd" clip-rule="evenodd" fill="#FFFFFF" stroke="#FFFFFF" stroke-width="3.600000e-02" stroke-miterlimit="10" points="
		301.5,24.1 300.9,25.5 290.6,20.5 287.7,26.6 297,31.1 296.3,32.4 287,27.9 283.8,34.4 294.4,39.5 293.7,40.8 281.5,34.9 
		289.7,18.4 301.5,24.1 	"/>
	
		<path fill-rule="evenodd" clip-rule="evenodd" fill="#FFFFFF" stroke="#FFFFFF" stroke-width="3.600000e-02" stroke-miterlimit="10" d="
		M310,29.6c1.4,0.9,3.2,1.9,4.2,3.3c0.9,1.3,1.1,2.9,0.6,4.3c-0.8,2.4-2.8,3.9-5.5,3.2c1.5,1.9,0.8,3.3,0,5.1
		c-0.4,0.9-0.8,1.7-1.2,2.6c-0.3,0.6-0.5,1.2-0.3,1.8c0,0.1-0.1,0.1-0.1,0.2c-0.6-0.4-1.2-0.7-1.7-1.1c0.1-1.6,1.6-3.8,2.2-5.4
		c0.9-2.2-0.1-3.2-2.1-4.4c-1.7-1-3.3-2.1-5-3.1c-1.4,2.4-2.8,4.8-4.2,7.3c-0.5-0.3-1-0.6-1.6-1c3.1-5.4,6.3-10.8,9.4-16.2
		C306.5,27.4,308.2,28.5,310,29.6L310,29.6z M309.2,31c-1.2-0.8-2.5-1.6-3.7-2.4c-1.2,2.1-2.4,4.2-3.6,6.3c1.5,0.9,3,1.9,4.5,2.8
		c2.4,1.5,4.9,2.3,6.4-0.5C314.4,34.1,311.7,32.5,309.2,31L309.2,31z"/>
	
		<polygon fill-rule="evenodd" clip-rule="evenodd" fill="#FFFFFF" stroke="#FFFFFF" stroke-width="3.600000e-02" stroke-miterlimit="10" points="
		323.7,39.2 313.1,54 311.5,52.9 322.2,38.1 323.7,39.2 	"/>
	
		<path fill-rule="evenodd" clip-rule="evenodd" fill="#FFFFFF" stroke="#FFFFFF" stroke-width="3.600000e-02" stroke-miterlimit="10" d="
		M336.5,55.1c-0.5-0.4-1-0.7-1.5-1.1c1.3-2,0.8-4.4-1-6.2c-1.5-1.6-3.9-2.6-6.1-2.4c-2.4,0.3-4.4,2-5.8,3.6
		c-3.1,3.7-3.8,8.7,1.5,11.7c2.5,1.4,5.2,0.8,6.9-1c0.5,0.4,1,0.7,1.5,1.1c-2.3,2.4-5.9,3.1-9.1,1.2c-6.3-3.6-6.3-9.4-2.4-14.1
		c1.9-2.3,4.6-4.3,8-4.2c2.6,0.1,5,1.4,6.8,3.2C337.6,49.3,338.4,52.7,336.5,55.1L336.5,55.1z"/>
	
		<path fill-rule="evenodd" clip-rule="evenodd" fill="#FFFFFF" stroke="#FFFFFF" stroke-width="3.600000e-02" stroke-miterlimit="10" d="
		M352.7,64.6l-7.6,18.1l-1.3-1.4l2.3-5.6l-5.9-6.4l-5.4,2.3l-1.2-1.4l17.6-7.3L352.7,64.6L352.7,64.6z M346.9,74.3l3.9-9.4l-9,3.8
		L346.9,74.3L346.9,74.3z"/>
	
		<polygon fill-rule="evenodd" clip-rule="evenodd" fill="#FFFFFF" stroke="#FFFFFF" stroke-width="3.600000e-02" stroke-miterlimit="10" points="
		374.8,92.2 364.4,106.6 381.8,103.4 383.2,105.6 367.3,115.5 366.4,114 380.2,105.4 362.9,108.5 362,107 372.3,92.7 358.5,101.4 
		357.5,99.8 373.4,89.9 374.8,92.2 	"/>
	
		<polygon fill-rule="evenodd" clip-rule="evenodd" fill="#FFFFFF" stroke="#FFFFFF" stroke-width="3.600000e-02" stroke-miterlimit="10" points="
		397,137.4 379.7,143.9 379,142.1 396.3,135.6 397,137.4 	"/>
	
		<polygon fill-rule="evenodd" clip-rule="evenodd" fill="#FFFFFF" stroke="#FFFFFF" stroke-width="3.600000e-02" stroke-miterlimit="10" points="
		389.2,118.1 379.3,134.9 393.8,128.5 394.6,130.2 377.6,137.7 376.8,135.8 386.7,119 372.2,125.4 371.4,123.8 388.4,116.2 
		389.2,118.1 	"/>
	
		<path fill-rule="evenodd" clip-rule="evenodd" fill="#FFFFFF" stroke="#FFFFFF" stroke-width="3.600000e-02" stroke-miterlimit="10" d="
		M391,151.6c-0.2-2.2-0.6-4.9,0.6-6.7c1.3-2,4.1-2.5,6-1.4c2.6,1.5,3.9,5.5,3.3,8.4c-0.3,2.1-1.9,3.5-3.8,4.1
		c-0.1-0.6-0.3-1.2-0.5-1.8c1.3-0.5,2.5-1.4,2.8-3c0.3-2-0.5-4.8-2.2-6c-1.3-0.9-3.4-0.6-4.3,0.7c-0.9,1.5-0.4,4.1-0.4,5.8
		c0,2.1,0.1,4.5-1.3,6.1c-1.5,1.7-4.5,1.9-6.4,0.5c-2.5-1.9-3.7-6.2-3.1-9.3c0.5-2.3,2.1-3.3,4.1-3.9c0.1,0.6,0.3,1.2,0.5,1.7
		c-1.5,0.5-2.8,1.6-3.1,3.4c-0.4,2.1,0.4,4.7,1.9,6.2c1.3,1.3,3.4,1.3,4.7,0.1C391.3,155.4,391.1,153.2,391,151.6L391,151.6z"/>
	
		<polygon fill-rule="evenodd" clip-rule="evenodd" fill="#FFFFFF" stroke="#FFFFFF" stroke-width="3.600000e-02" stroke-miterlimit="10" points="
		400.5,156 401.9,155.6 405,169.5 403.5,169.8 402.2,163.8 386,167.5 385.6,165.6 401.8,162 400.5,156 	"/>
	
		<path fill-rule="evenodd" clip-rule="evenodd" fill="#FFFFFF" stroke="#FFFFFF" stroke-width="3.600000e-02" stroke-miterlimit="10" d="
		M406.3,178.6c0.3,1.8,0.6,3.7,0.1,5.5c-0.4,1.5-1.5,2.7-2.8,3.2c-2.3,0.9-4.6,0.1-5.8-2.4c-0.5,2.4-2,2.7-3.9,3.1
		c-0.9,0.2-1.8,0.4-2.7,0.6c-0.6,0.1-1.2,0.3-1.5,0.9c-0.1,0-0.1,0-0.3,0c-0.1-0.7-0.1-1.4-0.3-2.1c1.3-0.9,3.9-1.1,5.4-1.6
		c2.2-0.6,2.3-2.1,2-4.4c-0.3-2-0.5-4-0.8-5.9c-2.7,0.4-5.3,0.7-8,1.1c-0.1-0.6-0.1-1.2-0.2-1.9c5.9-0.8,11.9-1.7,17.9-2.5
		C405.8,174.4,406,176.5,406.3,178.6L406.3,178.6z M404.9,178.9c-0.2-1.5-0.4-3-0.6-4.5c-2.3,0.3-4.6,0.6-6.9,1
		c0.2,1.8,0.4,3.6,0.7,5.4c0.4,2.9,1.3,5.4,4.3,4.9C405.8,185,405.3,181.9,404.9,178.9L404.9,178.9z"/>
	
		<path fill-rule="evenodd" clip-rule="evenodd" fill="#FFFFFF" stroke="#FFFFFF" stroke-width="3.600000e-02" stroke-miterlimit="10" d="
		M408.1,200.4l-17.7,7.8l-0.1-1.8l5.5-2.4l-0.3-8.6l-5.6-2l-0.1-1.8l18.3,6.7L408.1,200.4L408.1,200.4z M397.1,203.4l9.1-4.1
		l-9.4-3.4L397.1,203.4L397.1,203.4z"/>
	
		<polygon fill-rule="evenodd" clip-rule="evenodd" fill="#FFFFFF" stroke="#FFFFFF" stroke-width="3.600000e-02" stroke-miterlimit="10" points="
		406.6,207.5 408.1,207.6 407.4,222.1 406,222 406.3,215.7 389.7,214.9 389.8,213.1 406.3,213.8 406.6,207.5 	"/>
	
		<polygon fill-rule="evenodd" clip-rule="evenodd" fill="#FFFFFF" stroke="#FFFFFF" stroke-width="3.600000e-02" stroke-miterlimit="10" points="
		406.5,228.6 388.7,226.7 388.9,224.8 406.7,226.7 406.5,228.6 	"/>
	
		<path fill-rule="evenodd" clip-rule="evenodd" fill="#FFFFFF" stroke="#FFFFFF" stroke-width="3.600000e-02" stroke-miterlimit="10" d="
		M403.2,236.6c2.6,4,1.5,10.5-2.3,13.2c-4.1,2.9-11.1,1.6-13.9-2.7c-1.3-2.1-1.7-4.5-1.2-7.1c0.4-2.6,1.6-4.8,3.6-6.2
		C393.4,231,400.4,232.4,403.2,236.6L403.2,236.6z M401.8,237.8c-2.3-3.4-8.3-4.5-11.6-2.3c-3.2,2.2-4.1,7.3-1.9,10.6
		c2.4,3.4,8.3,4.5,11.7,2.3C403.2,246.2,404.1,241,401.8,237.8L401.8,237.8z"/>
	
		<polygon fill-rule="evenodd" clip-rule="evenodd" fill="#FFFFFF" stroke="#FFFFFF" stroke-width="3.600000e-02" stroke-miterlimit="10" points="
		400.2,260.4 381.7,266.7 396.9,271.5 396.3,273.2 378.6,267.7 379.3,265.7 397.8,259.4 382.6,254.6 383.1,252.8 400.8,258.4 
		400.2,260.4 	"/>
	
		<polygon fill-rule="evenodd" clip-rule="evenodd" fill="#FFFFFF" stroke="#FFFFFF" stroke-width="3.600000e-02" stroke-miterlimit="10" points="
		385.6,111.4 369.1,120.4 368.3,118.6 384.7,109.7 385.6,111.4 	"/>
	
		<path fill-rule="evenodd" clip-rule="evenodd" fill="#FFFFFF" stroke="#FFFFFF" stroke-width="3.600000e-02" stroke-miterlimit="10" d="
		M27.2,291.2c-1.2,0.6-2.4,1.3-3,2.5c-0.8,1.6-0.4,3.6,0.5,5.2c0.9,1.6,2.2,3.1,4.1,3.4c1.4,0.2,2.7-0.4,3.8-1
		c3.5-1.7,6.9-3.5,10.4-5.3c0.3,0.5,0.6,1.1,0.9,1.6c-3.5,1.8-7.1,3.6-10.6,5.4c-1.5,0.8-3.2,1.4-4.9,0.9c-2.3-0.5-4-2.4-5-4.4
		c-2.4-4.5-1.3-7.8,2.8-9.9c3.5-1.8,7.1-3.6,10.6-5.4c0.3,0.5,0.6,1.1,0.9,1.6C34.2,287.6,30.7,289.4,27.2,291.2L27.2,291.2z"/>
	
		<path fill-rule="evenodd" clip-rule="evenodd" fill="#FFFFFF" stroke="#FFFFFF" stroke-width="3.600000e-02" stroke-miterlimit="10" d="
		M43.3,314.8c-0.8-2.1-2.1-4.6-1.4-6.8c0.6-2.3,3.1-3.7,5.3-3.2c3,0.7,5.3,4.2,5.7,7.2c0.3,2.2-0.8,4-2.4,5.1c-0.3-0.5-0.6-1-1-1.5
		c1.1-0.9,1.9-2.2,1.7-3.8c-0.3-2-1.9-4.6-3.9-5.2c-1.5-0.4-3.4,0.4-3.8,2c-0.5,1.8,0.8,4.1,1.4,5.7c0.7,2.1,1.5,4.4,0.6,6.3
		c-0.9,2.1-3.7,3.3-5.9,2.5c-3-1.1-5.4-5-5.7-8.1c-0.1-2.4,1-3.9,2.7-5.1c0.3,0.5,0.6,1,1,1.5c-1.3,1-2.2,2.4-1.9,4.3
		c0.3,2.1,1.8,4.5,3.6,5.5c1.7,0.9,3.6,0.2,4.5-1.3C44.7,318.4,43.9,316.3,43.3,314.8L43.3,314.8z"/>
	
		<polygon fill-rule="evenodd" clip-rule="evenodd" fill="#FFFFFF" stroke="#FFFFFF" stroke-width="3.600000e-02" stroke-miterlimit="10" points="
		45,328.5 43,329.9 41.1,327.6 43.2,326.1 45,328.5 	"/>
	
		<path fill-rule="evenodd" clip-rule="evenodd" fill="#FFFFFF" stroke="#FFFFFF" stroke-width="3.600000e-02" stroke-miterlimit="10" d="
		M106.2,362.3l-3.6,19.9l-1.6-1l1.1-6.1l-7.8-4.9l-5.1,3.6l-1.6-1l16.8-11.6L106.2,362.3L106.2,362.3z M102.4,373.4l1.9-10.3l-8.6,6
		L102.4,373.4L102.4,373.4z"/>
	
		<path fill-rule="evenodd" clip-rule="evenodd" fill="#FFFFFF" stroke="#FFFFFF" stroke-width="3.600000e-02" stroke-miterlimit="10" d="
		M119.4,370.5c1.5,0.8,3.3,1.6,4.4,3c1,1.2,1.3,2.8,0.9,4.2c-0.6,2.5-2.6,4-5.2,3.6c1.6,1.8,1,3.2,0.3,5.1c-0.3,0.9-0.7,1.8-1,2.7
		c-0.2,0.6-0.4,1.2-0.2,1.8c0,0.1-0.1,0.1-0.1,0.3c-0.6-0.3-1.2-0.6-1.8-0.9c0-1.6,1.3-3.9,1.8-5.5c0.8-2.3-0.3-3.2-2.3-4.2
		c-1.7-0.9-3.4-1.8-5.1-2.7c-1.2,2.5-2.4,5-3.6,7.5c-0.5-0.3-1.1-0.6-1.6-0.9c2.7-5.6,5.4-11.2,8.2-16.8
		C115.8,368.6,117.6,369.6,119.4,370.5L119.4,370.5z M118.8,371.9c-1.3-0.7-2.6-1.4-3.9-2.1c-1,2.2-2.1,4.3-3.2,6.5
		c1.5,0.8,3.1,1.7,4.6,2.5c2.5,1.3,5,1.9,6.2-0.9C124.1,374.6,121.4,373.3,118.8,371.9L118.8,371.9z"/>
	
		<polygon fill-rule="evenodd" clip-rule="evenodd" fill="#FFFFFF" stroke="#FFFFFF" stroke-width="3.600000e-02" stroke-miterlimit="10" points="
		127.8,375.9 128.4,374.5 142.2,379.9 141.6,381.3 135.6,379 129.1,394.6 127.3,393.9 133.8,378.2 127.8,375.9 	"/>
	
		<polygon fill-rule="evenodd" clip-rule="evenodd" fill="#FFFFFF" stroke="#FFFFFF" stroke-width="3.600000e-02" stroke-miterlimit="10" points="
		147.3,382.2 149.3,399.4 160,385.7 162.5,386.4 157.4,403.9 155.7,403.4 160.2,388.1 149.5,401.7 147.8,401.2 145.9,384.1 
		141.4,399.4 139.7,398.9 144.8,381.4 147.3,382.2 	"/>
	
		<polygon fill-rule="evenodd" clip-rule="evenodd" fill="#FFFFFF" stroke="#FFFFFF" stroke-width="3.600000e-02" stroke-miterlimit="10" points="
		178.8,389.6 178.6,391.1 167.5,389.1 166.4,395.7 176.4,397.5 176.2,398.9 166.2,397.1 164.9,404.2 176.2,406.2 176,407.7 
		162.9,405.4 166,387.3 178.8,389.6 	"/>
	
		<polygon fill-rule="evenodd" clip-rule="evenodd" fill="#FFFFFF" stroke="#FFFFFF" stroke-width="3.600000e-02" stroke-miterlimit="10" points="
		184.8,390.6 195.1,406.8 196.3,391.4 198.2,391.6 196.7,409.5 194.6,409.3 184.4,393.1 183.1,408.4 181.2,408.3 182.7,390.4 
		184.8,390.6 	"/>
	
		<polygon fill-rule="evenodd" clip-rule="evenodd" fill="#FFFFFF" stroke="#FFFFFF" stroke-width="3.600000e-02" stroke-miterlimit="10" points="
		203.4,393.3 203.3,391.8 216.8,391.5 216.8,392.9 211,393.1 211.4,409.4 209.6,409.4 209.2,393.1 203.4,393.3 	"/>
	
		<path fill-rule="evenodd" clip-rule="evenodd" fill="#FFFFFF" stroke="#FFFFFF" stroke-width="3.600000e-02" stroke-miterlimit="10" d="
		M229.5,392.1c2.8-3.9,9.1-4.9,13-2.2c4.1,2.9,5.3,10,2.4,14.1c-1.4,2-3.6,3.1-6.1,3.5c-2.5,0.4-5,0-6.9-1.4
		C227.8,403.3,226.5,396.2,229.5,392.1L229.5,392.1z M231,393c-2.3,3.3-1.2,9.5,2,11.9c3.2,2.3,8.2,1.5,10.4-1.7
		c2.3-3.4,1.3-9.5-2-11.9C238.3,388.9,233.2,389.8,231,393L231,393z"/>
	
		<polygon fill-rule="evenodd" clip-rule="evenodd" fill="#FFFFFF" stroke="#FFFFFF" stroke-width="3.600000e-02" stroke-miterlimit="10" points="
		257.6,384.2 257.9,385.6 247.4,388.2 249,394.5 258.7,392.1 259,393.5 249.4,395.9 251.6,404.2 249.8,404.6 245.2,387.3 
		257.6,384.2 	"/>
	
		<path fill-rule="evenodd" clip-rule="evenodd" fill="#FFFFFF" stroke="#FFFFFF" stroke-width="3.600000e-02" stroke-miterlimit="10" d="
		M281.4,381c-0.6,0.2-1.2,0.4-1.7,0.6c-1.2-2.1-3.6-2.8-6.1-2.3c-2.2,0.5-4.3,1.8-5.3,3.7c-1,2.1-0.4,4.6,0.4,6.6
		c1.7,4.4,5.9,7.5,11.2,4.6c2.5-1.3,3.4-3.9,2.6-6.2c0.6-0.2,1.2-0.4,1.8-0.6c1,3.1-0.2,6.4-3.6,8.1c-6.4,3.3-11.6,0.4-13.8-5.1
		c-1.1-2.7-1.5-5.9,0.3-8.6c1.4-2.1,3.8-3.4,6.3-4C276.8,377.2,280.2,378.3,281.4,381L281.4,381z"/>
	
		<path fill-rule="evenodd" clip-rule="evenodd" fill="#FFFFFF" stroke="#FFFFFF" stroke-width="3.600000e-02" stroke-miterlimit="10" d="
		M285,376.2c1.5-4.6,7.1-7.6,11.5-6.1c4.7,1.6,7.9,8.2,6.4,13.2c-0.8,2.4-2.4,4.2-4.6,5.3c-2.2,1.2-4.6,1.5-6.9,0.8
		C286.7,387.8,283.5,381.1,285,376.2L285,376.2z M286.7,376.6c-1.2,4,1.7,9.7,5.4,11.1c3.6,1.3,8.1-1,9.2-4.9
		c1.1-4-1.7-9.7-5.4-11.1C292.2,370.3,287.7,372.8,286.7,376.6L286.7,376.6z"/>
	
		<polygon fill-rule="evenodd" clip-rule="evenodd" fill="#FFFFFF" stroke="#FFFFFF" stroke-width="3.600000e-02" stroke-miterlimit="10" points="
		302.3,364.2 316.9,374.1 313.3,357 315.5,355.5 325.8,371 324.3,371.9 315.3,358.4 318.8,375.5 317.4,376.5 303,366.6 311.9,380.1 
		310.4,381.1 300.2,365.6 302.3,364.2 	"/>
	
		<polygon fill-rule="evenodd" clip-rule="evenodd" fill="#FFFFFF" stroke="#FFFFFF" stroke-width="3.600000e-02" stroke-miterlimit="10" points="
		319.5,352.3 335.2,360.6 329.7,343.7 331.7,342 343.8,356.4 342.4,357.5 331.8,345 337.3,361.7 336,362.9 320.4,354.6 330.9,367.1 
		329.5,368.3 317.4,354 319.5,352.3 	"/>
	
		<polygon fill-rule="evenodd" clip-rule="evenodd" fill="#FFFFFF" stroke="#FFFFFF" stroke-width="3.600000e-02" stroke-miterlimit="10" points="
		343.5,331 344.6,331.9 337,339.7 341.6,344.1 348.5,337.1 349.6,338 342.7,345 347.7,349.8 355.5,341.9 356.5,342.9 347.5,352.1 
		334.7,339.9 343.5,331 	"/>
	
		<path fill-rule="evenodd" clip-rule="evenodd" fill="#FFFFFF" stroke="#FFFFFF" stroke-width="3.600000e-02" stroke-miterlimit="10" d="
		M349.1,323.5c1.1-1.4,2.2-3,3.8-3.8c1.4-0.7,3-0.7,4.2,0c2.3,1.2,3.3,3.4,2.4,5.9c2.1-1.2,3.3-0.4,4.9,0.8c0.8,0.5,1.5,1,2.3,1.6
		c0.5,0.3,1.1,0.6,1.7,0.5c0.1,0,0.1,0.1,0.2,0.1c-0.4,0.5-0.9,1-1.3,1.6c-1.5-0.3-3.5-2.1-4.9-2.9c-2-1.2-3.1-0.3-4.6,1.4
		c-1.2,1.5-2.4,3-3.7,4.5c2.1,1.7,4.3,3.5,6.4,5.2c-0.4,0.5-0.8,0.9-1.2,1.4c-4.8-3.9-9.6-7.7-14.4-11.6
		C346.4,326.8,347.7,325.1,349.1,323.5L349.1,323.5z M350.2,324.4c-0.9,1.2-1.9,2.3-2.8,3.5c1.8,1.5,3.7,3,5.6,4.5
		c1.1-1.4,2.2-2.7,3.3-4.1c1.8-2.2,2.9-4.6,0.5-6.4C354,319.7,352.1,322.1,350.2,324.4L350.2,324.4z"/>
	
		<path fill-rule="evenodd" clip-rule="evenodd" fill="#FFFFFF" stroke="#FFFFFF" stroke-width="3.600000e-02" stroke-miterlimit="10" d="
		M369.2,304.4c-0.3,0.5-0.6,1-1,1.5c-2.1-1-4.5-0.3-6.2,1.5c-1.5,1.6-2.3,3.9-2,6c0.5,2.3,2.4,4,4.2,5.2c4,2.7,9.1,2.9,11.6-2.5
		c1.2-2.5,0.4-5.1-1.6-6.6c0.3-0.5,0.6-1,1-1.5c2.6,2,3.6,5.3,2,8.6c-3.1,6.4-9,6.8-14,3.5c-2.5-1.6-4.7-4-4.9-7.2
		c-0.1-2.4,1-4.9,2.7-6.8C363.2,303.8,366.5,302.8,369.2,304.4L369.2,304.4z"/>
	
		<polygon fill-rule="evenodd" clip-rule="evenodd" fill="#FFFFFF" stroke="#FFFFFF" stroke-width="3.600000e-02" stroke-miterlimit="10" points="
		372.5,287.4 373.9,288.1 368.5,298.2 374.5,301.3 379.5,292.2 380.8,292.8 375.8,302 382.4,305.4 388,295.1 389.4,295.8 
		382.9,307.8 366.2,299.1 372.5,287.4 	"/>
	
		<polygon fill-rule="evenodd" clip-rule="evenodd" fill="#FFFFFF" stroke="#FFFFFF" stroke-width="3.600000e-02" stroke-miterlimit="10" points="
		32.2,309 30.2,310.2 28.7,307.7 30.7,306.4 32.2,309 	"/>
	
		<path fill-rule="evenodd" clip-rule="evenodd" fill="#FFFFFF" stroke="#FFFFFF" stroke-width="3.600000e-02" stroke-miterlimit="10" d="
		M133.7,32.2c-2.1-5.7-4.2-11.4-6.4-17.1c1.5-0.5,3-1.1,4.4-1.7c2.2-0.8,4.6-1.9,7-1.6c3.3,0.6,5.4,3.5,6.4,6.3
		c1.1,2.9,1.6,6.7-0.9,9.3c-1.4,1.4-3.5,2.2-5.3,2.8C137.1,30.9,135.4,31.6,133.7,32.2L133.7,32.2z M132.7,14.9
		c-1,0.4-1.9,0.7-3,1.1c1.8,4.7,3.5,9.4,5.3,14.1c0.9-0.3,1.8-0.6,2.7-1c1.8-0.7,4-1.2,5.3-2.7c1.9-2.2,1.2-5.3,0.4-7.5
		c-0.9-2.2-2.3-4.9-5-5.4C136.4,13.3,134.5,14.2,132.7,14.9L132.7,14.9z"/>
	
		<path fill-rule="evenodd" clip-rule="evenodd" fill="#FFFFFF" stroke="#FFFFFF" stroke-width="3.600000e-02" stroke-miterlimit="10" d="
		M345.8,83.9c4.9-4,9.7-7.9,14.6-11.9c1,1.3,2,2.6,3,3.9c1.5,1.9,3.3,3.9,3.7,6.4c0.5,3.5-1.7,6.4-4.1,8.4c-2.5,2-6,3.8-9.4,2.1
		c-1.8-1-3.2-2.7-4.4-4.4C348.2,86.9,347,85.4,345.8,83.9L345.8,83.9z M362.4,77c-0.7-0.9-1.4-1.7-2.1-2.6c-4,3.3-8.1,6.7-12.2,10
		c0.6,0.8,1.2,1.6,1.8,2.4c1.3,1.6,2.5,3.6,4.3,4.4c2.7,1.3,5.5-0.5,7.5-2.1c1.9-1.6,4.1-3.9,3.6-6.8
		C365.2,80.3,363.6,78.6,362.4,77L362.4,77z"/>
	
		<polygon fill-rule="evenodd" clip-rule="evenodd" fill="#FFFFFF" stroke="#FFFFFF" stroke-width="3.600000e-02" stroke-miterlimit="10" points="
		85.4,347.3 84.4,348.4 76,340.9 71.5,345.8 79.2,352.6 78.2,353.7 70.5,346.9 65.7,352.2 74.3,359.9 73.3,361.1 63.3,352.1 
		75.6,338.6 85.4,347.3 	"/>
	
		<path fill-rule="evenodd" clip-rule="evenodd" fill="#FFFFFF" stroke="#FFFFFF" stroke-width="3.600000e-02" stroke-miterlimit="10" d="
		M93.7,353.3c3.1,2.3,4.7,5.2,2.3,8.3c-2.8,3.4-6.3,2.1-9.6-0.3c-1.2-0.9-2.4-1.8-3.6-2.7c-1.7,2.2-3.4,4.4-5.1,6.6
		c-0.5-0.4-1-0.7-1.6-1.1c3.9-5,7.8-10.1,11.7-15.2C89.8,350.4,91.8,351.8,93.7,353.3L93.7,353.3z M92.7,354.4
		c-1.4-1-2.8-2.1-4.3-3.1c-1.5,2-3.1,4-4.7,6.1c1.2,0.9,2.4,1.8,3.6,2.7c2.4,1.8,4.9,3,7,0.4C96.2,358,95,356.2,92.7,354.4
		L92.7,354.4z"/>
	
		<path fill-rule="evenodd" clip-rule="evenodd" fill="#FFFFFF" stroke="#FFFFFF" stroke-width="3.600000e-02" stroke-miterlimit="10" d="
		M49.5,337.1c4.5-4.1,8.9-8.2,13.4-12.3c1,1.2,2.1,2.3,3.2,3.5c1.6,1.7,3.5,3.5,4.1,5.9c0.7,3.3-1.3,6.3-3.5,8.3
		c-2.3,2.1-5.6,4-8.9,2.6c-1.8-0.8-3.3-2.4-4.6-3.9C51.9,339.8,50.7,338.5,49.5,337.1L49.5,337.1z M65.1,329.5
		c-0.7-0.8-1.4-1.6-2.2-2.4c-3.7,3.4-7.3,6.8-11.1,10.3c0.6,0.7,1.3,1.4,1.9,2.1c1.3,1.4,2.6,3.2,4.4,3.9c2.7,1,5.3-0.8,7.1-2.4
		c1.7-1.6,3.7-4,3.1-6.7C68,332.4,66.4,330.9,65.1,329.5L65.1,329.5z"/>
	
		<path fill-rule="evenodd" clip-rule="evenodd" fill="#0098D7" stroke="#0098D7" stroke-width="3.600000e-02" stroke-miterlimit="10" d="
		M360.5,127.1c11.8,23.5,18.4,50,18.4,78c0,96.1-77.9,174-174,174c-96.1,0-174-77.9-174-174c0-15.4,2-30.3,5.8-44.5
		c0,0,7.8,3,15.9,9.2c8,6.1,7.5,7.2,15.2,15.6c7.7,8.3,5,7.5,15.6,17.6c10.5,10.1,11.7,12.8,26.6,22.8c14.9,10,16.8,10.9,33.2,17.3
		c16.4,6.4,16.9,5.9,32.5,8.3c9.8,0.6,19.6,1.2,29.4,1.7c-5.9,4.2-9.6,5.8-19,10c-9.4,4.2-9.2,3.7-18.7,6.9
		c-9.5,3.2-13.1,4.1-19.4,5.9c0.2,0,0.4,0,0.7,0c0.4,1.7,0.7,2.6,6.2,4.5c5.5,1.9,6.2,3.4,15.9,3.1c9.8-0.3,8.2,1.7,23.2-4.1
		c14.9-5.9,20.7-12,36.6-19.4c15.9-7.4,13.2-6.9,27-10.4c13.8-3.5,18.7-3.5,28-3.5c0-0.1,0-0.2,0-0.3c0.7-2.1,0.4-3.5-2.4-5.5
		c-2.8-2.1-2.2-2.3-9-2.8c-6.8-0.4-11.5,0.6-18.3,1c-6.8,0.4-5.7,0.8-9,0.7c-1.5-0.4-3-0.7-4.5-1c3.5-0.3,5.8-1.3,14.1-5.5l0,0
		c8.4-4.2,8.5-3.9,19.4-11.4c10.9-7.6,11.4-6.2,24.2-18.7c12.8-12.5,15.9-17.8,27-31.5c11.1-13.7,8.8-11.9,17.3-23.1
		C352.9,136.8,355,134.4,360.5,127.1L360.5,127.1z"/>
	<path fill-rule="evenodd" clip-rule="evenodd" fill="#FFFFFF" d="M168.4,141.1V109v0l0,0c0-3.2,2.6-5.8,5.8-5.8l0,0h16.7l0,0
		c3.2,0,5.8,2.6,5.8,5.8l0,0V141v0l0,0c0,3.2-2.6,5.8-5.8,5.8l0,0h-16.7h0C171,146.9,168.4,144.3,168.4,141.1L168.4,141.1z
		 M177.8,136.7v-23.4l0,0c0-0.8,0.6-1.5,1.4-1.5l0,0h6.5l0,0c0.8,0,1.4,0.7,1.4,1.5l0,0v23.4l0,0c0,0.8-0.6,1.4-1.4,1.4l0,0h-6.5
		l0,0C178.5,138.1,177.8,137.5,177.8,136.7L177.8,136.7L177.8,136.7z"/>
</g>
</svg>
